
<svg width="47" height="62" viewBox="0 0 47 62" fill="none" xmlns="http://www.w3.org/2000/svg">
<path d="M23.5 46C36.4787 46 47 35.7025 47 23C47 10.2975 36.4787 0 23.5 0C10.5213 0 0 10.2975 0 23C0 35.7025 10.5213 46 23.5 46Z" fill="white"/>
<path d="M34.7692 12.5892C34.9091 12.5642 34.9507 12.6874 35.0135 12.773C35.5919 13.5687 36.0932 14.4165 36.5107 15.3062C36.6717 15.6361 36.4564 15.6904 36.254 15.7865C33.7668 16.9706 31.3338 18.2591 28.9594 19.6562C23.3897 22.9411 18.148 26.7524 13.3052 31.0356C12.9773 31.3258 12.8332 31.3008 12.5596 30.9854C11.7431 30.0499 11.0372 29.0245 10.4546 27.928C10.3251 27.6776 10.346 27.5501 10.5736 27.3789C17.4881 22.1517 24.6616 17.3381 32.5116 13.6042C33.1799 13.2867 33.8587 12.9902 34.5332 12.6853C34.6084 12.6498 34.6856 12.6227 34.767 12.5892H34.7692Z" fill="#F86534"/>
<path d="M37.8237 20.7895C37.9303 21.1132 37.7068 21.3032 37.3373 21.4807C30.3121 24.8325 23.9886 29.2472 18.0326 34.2154C17.6588 34.5266 17.4019 34.5579 16.9905 34.3365C16.2095 33.9188 15.4535 33.4594 14.7247 32.9561C14.3864 32.7223 14.4469 32.5969 14.7163 32.3651C17.2892 30.141 19.9413 28.0151 22.7126 26.0416C27.1921 22.8339 31.9389 20.0189 36.9008 17.6256C37.237 17.4648 37.331 17.5525 37.4019 17.8679C37.6233 18.8285 37.7654 19.8059 37.8237 20.7915V20.7895Z" fill="#F86534"/>
<path d="M37.6103 23.5391C36.4742 32.2057 27.4526 37.5539 19.8281 35.3153C22.0417 32.8489 33.9452 24.9571 37.6103 23.5391Z" fill="#F86534"/>
<path d="M23.6486 7C27.0337 7.0543 30.2977 8.31983 33.0815 10.83C33.3906 11.1078 33.3864 11.2372 32.9939 11.4127C26.4844 14.3071 20.4659 18.0452 14.6561 22.1363C13.0794 23.2472 11.5341 24.4084 9.97825 25.5465C9.47287 25.9161 9.47496 25.9183 9.31207 25.3398C7.45972 18.6237 10.6528 11.5401 16.9115 8.47854C18.9268 7.49702 21.0527 7.00835 23.6486 7.00209V7Z" fill="#017785"/>
<path d="M38.6167 20.1641L42.7558 19.9531C41.8453 20.6193 41.0289 21.2145 40.1475 21.8577C40.1663 21.1706 39.8468 21.44 39.5815 21.5716C34.532 24.0504 29.8207 27.0744 25.3014 30.4115C23.2654 31.9151 21.2647 33.4647 19.4437 35.2293C19.1012 35.5488 18.8047 35.9122 18.5583 36.3111C18.1406 37.0169 18.3599 37.4534 19.1618 37.5432C19.2558 37.5537 19.3602 37.5328 19.452 37.6747C18.7796 38.0465 18.0717 38.3451 17.3387 38.5685C16.6704 38.8005 15.975 38.9466 15.2691 39.0009C14.9914 39.0196 14.6907 39.0092 14.5424 38.7315C14.3962 38.46 14.6009 38.2386 14.7533 38.0382C15.6617 36.8478 16.8166 35.9102 17.9819 34.9955C23.6809 30.5619 29.6766 26.5251 35.9312 22.9185C37.1007 22.2378 38.2868 21.5904 39.5022 20.991C39.6275 20.9284 39.8322 20.895 39.8281 20.7404C39.8218 20.5629 39.6045 20.5483 39.4646 20.4898C39.2182 20.3917 38.9676 20.2998 38.6127 20.162L38.6167 20.1641Z" fill="#017785"/>
<path d="M36.9288 14.6073C38.5681 14.5259 40.1343 14.4465 41.7006 14.3672C41.7132 14.3964 41.7256 14.4277 41.7362 14.457L38.8333 16.5787C38.6453 16.0232 38.6453 16.0253 38.1107 16.2843C32.0045 19.2539 26.3492 22.9503 20.9112 26.9934C18.6474 28.6765 16.4213 30.4077 14.4185 32.4021C14.0406 32.755 13.7169 33.1622 13.4579 33.6092C13.0194 34.4215 13.3284 34.9478 14.264 34.9895C14.406 34.9958 14.548 34.9895 14.8258 34.9895C13.8902 35.5304 12.892 35.9564 11.8541 36.2571C11.0793 36.5328 10.2627 36.6706 9.43995 36.6665C9.1977 36.656 8.92621 36.6706 8.79256 36.4285C8.64428 36.1549 8.76959 35.8959 8.93457 35.6641C9.70726 34.576 10.7097 33.7051 11.7288 32.8678C17.3255 28.2631 23.3525 24.2639 29.4922 20.4359C32.2759 18.6608 35.1495 17.0277 38.0983 15.5408C38.2235 15.4782 38.4199 15.4489 38.4219 15.2882C38.4219 15.1169 38.2235 15.1169 38.094 15.0668C37.7285 14.9206 37.3589 14.7765 36.9308 14.6073H36.9288Z" fill="#017785"/>
<path d="M36.4571 8.15625H42.0727C40.8635 8.97279 39.7378 9.73294 38.6311 10.4806C38.5057 10.4492 38.5163 10.3741 38.5225 10.3156C38.5705 9.90002 38.4222 9.85407 38.0609 10.0128C35.463 11.1551 32.9216 12.406 30.4344 13.7676C24.8919 16.7999 19.5666 20.2122 14.4961 23.9797C12.957 25.1199 11.4367 26.2955 10.096 27.678C9.8099 27.962 9.56765 28.2878 9.37762 28.645C9.01006 29.3591 9.22516 29.8165 9.98949 30.0232C10.2798 30.0881 10.5784 30.1214 10.8749 30.1194C10.3466 30.4514 9.77648 30.7103 9.17922 30.892C7.79674 31.3785 6.39963 31.8213 4.90648 31.7796C4.71226 31.79 4.52014 31.7587 4.34054 31.6877C4.02729 31.5332 3.91869 31.3202 4.06279 30.9817C4.27789 30.4764 4.66214 30.1088 5.04222 29.7372C6.94469 27.8869 9.09152 26.3394 11.2697 24.8442C18.5642 19.8092 26.1574 15.2253 34.0075 11.1133C35.2355 10.4722 36.4822 9.86869 37.7519 9.31528C37.9231 9.2401 38.2113 9.20459 38.2134 9.02292C38.2154 8.78693 37.9085 8.78274 37.729 8.69712C37.3531 8.52171 36.9667 8.37135 36.4613 8.15625H36.4571Z" fill="#017785"/>
<g clip-path="url(#clip0_29360_2361)">
<mask id="mask0_29360_2361" style="mask-type:luminance" maskUnits="userSpaceOnUse" x="11" y="50" width="28" height="12">
<path d="M39 50H11V62H39V50Z" fill="white"/>
</mask>
<g mask="url(#mask0_29360_2361)">
<path d="M25.6611 56.3242C25.4459 55.4801 25.2308 54.6359 25.0156 53.7918L39.003 53.7812V55.0936C39.003 55.3081 38.9272 55.5197 38.7757 55.7286C38.6536 55.8782 38.5064 56.0051 38.3407 56.1038C38.062 56.2602 37.7468 56.3393 37.4275 56.3328C36.9011 56.3342 32.1745 56.3434 25.6611 56.3242Z" fill="white"/>
<path d="M19.819 56.3388H14.1562C14.8254 55.4964 15.4946 54.6538 16.1641 53.8111C17.4146 53.7957 18.6651 53.7806 19.9156 53.7656C19.8837 54.6235 19.8515 55.4812 19.819 56.3388Z" fill="white"/>
<path d="M19.7309 53.7648H19.7188C19.9332 53.7654 20.1457 53.7242 20.3444 53.6433C20.5388 53.5651 20.7172 53.4518 20.8708 53.3089C21.0243 53.1658 21.1514 52.9966 21.2462 52.8091C21.3447 52.6141 21.4034 52.4013 21.4186 52.1833V51.2616C21.4218 51.0363 21.4876 50.8164 21.6086 50.6266C21.8962 50.2083 22.2673 49.9995 22.7218 50H23.9639V52.0696C23.9622 52.2996 24.0076 52.5275 24.0973 52.7392C24.1828 52.9428 24.3057 53.1284 24.4597 53.2864C24.6136 53.4438 24.7968 53.5694 24.9989 53.6561C25.2087 53.7466 25.435 53.7924 25.6634 53.7907L25.6619 56.3207H25.4202C24.9251 56.2985 24.4643 56.2077 24.0324 56.0162C23.5309 55.8029 23.0741 55.4961 22.6865 55.1121C22.5479 55.2502 22.3997 55.3784 22.2432 55.4957C21.5429 56.0246 20.6949 56.3198 19.8186 56.3398C19.7896 55.4811 19.7603 54.6224 19.7308 53.7636L19.7309 53.7648Z" fill="white"/>
<path d="M13.6174 54.04C13.6174 53.4211 13.6184 52.8017 13.6204 52.1818V51.26C13.6235 51.0348 13.6893 50.8148 13.8102 50.625C14.098 50.2083 14.4691 50 14.9236 50H16.1657V52.0696C16.1641 52.2996 16.2095 52.5275 16.2992 52.7392C16.3847 52.9428 16.5077 53.1285 16.6617 53.2865C16.8156 53.444 16.9987 53.5696 17.2008 53.6563C17.4107 53.7468 17.637 53.7926 17.8654 53.7909L17.8639 56.3209L13.6172 56.344V54.04H13.6174Z" fill="white"/>
<path d="M18.2107 57.1797C18.364 57.1786 18.5157 57.2106 18.6556 57.2735C18.7904 57.3342 18.913 57.4191 19.0172 57.5242C19.1225 57.6306 19.206 57.7568 19.2629 57.8955C19.323 58.0396 19.3536 58.1944 19.3529 58.3506C19.3541 58.5056 19.3235 58.6592 19.2629 58.8019C19.2054 58.9391 19.122 59.0639 19.0172 59.1694C18.9133 59.274 18.7906 59.358 18.6556 59.4169C18.5152 59.4779 18.3637 59.5089 18.2107 59.5078C18.0568 59.5089 17.9043 59.478 17.7629 59.4169C17.4875 59.2993 17.2686 59.0787 17.1525 58.8019C17.0923 58.6591 17.0617 58.5056 17.0625 58.3506C17.0615 58.1943 17.0922 58.0395 17.1525 57.8955C17.2092 57.7566 17.2927 57.6304 17.3982 57.5242C17.5033 57.4187 17.6269 57.3338 17.7629 57.2735C17.9039 57.2108 18.0565 57.1788 18.2107 57.1797Z" fill="white"/>
<path d="M20.7263 57.1797C20.8796 57.1786 21.0313 57.2106 21.1711 57.2735C21.3059 57.3342 21.4285 57.4191 21.5328 57.5242C21.6381 57.6307 21.7215 57.7568 21.7785 57.8955C21.8385 58.0396 21.8692 58.1944 21.8685 58.3506C21.8697 58.5056 21.839 58.6593 21.7785 58.8019C21.7209 58.9391 21.6375 59.0639 21.5328 59.1694C21.4289 59.274 21.3061 59.358 21.1711 59.4169C21.0299 59.4768 20.8781 59.5076 20.7248 59.5076C20.5715 59.5076 20.4198 59.4768 20.2786 59.4169C20.0031 59.2993 19.7842 59.0787 19.6682 58.8019C19.608 58.6591 19.5773 58.5056 19.5781 58.3506C19.5772 58.1943 19.6078 58.0395 19.6682 57.8955C19.7248 57.7567 19.8083 57.6304 19.9138 57.5242C20.0189 57.4187 20.1426 57.3338 20.2786 57.2735C20.4195 57.2108 20.5721 57.1788 20.7263 57.1797Z" fill="white"/>
<path d="M19.4685 59.6172C19.6217 59.6161 19.7735 59.648 19.9133 59.711C20.0481 59.7716 20.1707 59.8566 20.2749 59.9616C20.3802 60.0681 20.4637 60.1943 20.5206 60.3329C20.5806 60.4771 20.6112 60.6319 20.6106 60.7881C20.6118 60.9431 20.5812 61.0967 20.5206 61.2394C20.4631 61.3766 20.3796 61.5013 20.2749 61.6068C20.171 61.7115 20.0483 61.7954 19.9133 61.8544C19.7721 61.9142 19.6203 61.9451 19.467 61.9451C19.3137 61.9451 19.162 61.9142 19.0207 61.8544C18.8841 61.7967 18.7602 61.7126 18.6561 61.6068C18.5518 61.501 18.4684 61.3763 18.4104 61.2394C18.3501 61.0966 18.3195 60.9431 18.3203 60.7881C18.3194 60.479 18.44 60.182 18.6561 59.9616C18.7611 59.8562 18.8848 59.7712 19.0207 59.711C19.1617 59.6483 19.3143 59.6163 19.4685 59.6172Z" fill="white"/>
<path d="M11.9219 59.4754C12.3469 59.4516 12.9717 59.3432 13.3143 58.8758C13.4502 58.6905 13.621 58.2769 13.621 57.8149C13.621 57.3529 13.93 56.2681 14.0124 56.1528C14.2474 55.8214 14.8021 55.5324 16.2037 55.7107C16.2439 56.1395 16.2587 56.5702 16.2479 57.0007C16.2434 57.3022 16.223 57.6032 16.1868 57.9025C16.132 58.4288 16.0099 58.9458 15.8237 59.4409C15.7481 59.6483 15.6566 59.8496 15.5498 60.0428C15.3347 60.4297 15.0544 60.7762 14.7212 61.0669C14.4741 61.2767 14.2016 61.4544 13.9102 61.5958C13.5816 61.7567 13.2324 61.8715 12.8727 61.9371C12.556 61.1159 12.2391 60.2951 11.922 59.4747L11.9219 59.4754Z" fill="white"/>
<path d="M12.8326 59.485C12.2215 59.482 11.6106 59.4792 11 59.4766V60.7866C11.0024 61.0095 11.0669 61.2273 11.1862 61.4154C11.2472 61.5154 11.4532 61.846 11.8408 61.962C11.9621 61.9989 12.059 61.9997 12.2535 62.0012C12.461 62.0031 12.6682 61.9831 12.8715 61.9413C12.8586 61.1225 12.8456 60.3037 12.8326 59.485Z" fill="white"/>
<path d="M16.0656 55.4531H13.6172V58.6198H16.0656V55.4531Z" fill="white"/>
</g>
</g>
<defs>
<clipPath id="clip0_29360_2361">
<rect width="28" height="12" fill="white" transform="translate(11 50)"/>
</clipPath>
</defs>
</svg>