
<svg width="18" height="18" viewBox="0 0 18 18" fill="none" xmlns="http://www.w3.org/2000/svg">
<path d="M9 0C7.21997 0 5.47991 0.527841 3.99987 1.51677C2.51983 2.50571 1.36628 3.91131 0.685088 5.55585C0.00389957 7.20038 -0.17433 9.00998 0.172937 10.7558C0.520203 12.5016 1.37737 14.1053 2.63604 15.364C3.89472 16.6226 5.49836 17.4798 7.24419 17.8271C8.99002 18.1743 10.7996 17.9961 12.4442 17.3149C14.0887 16.6337 15.4943 15.4802 16.4832 14.0001C17.4722 12.5201 18 10.78 18 9C18 6.61305 17.0518 4.32387 15.364 2.63604C13.6761 0.948212 11.387 0 9 0ZM13.278 6.477L12.423 7.332L10.683 5.592L10.023 6.252L11.763 7.992L7.5 12.259L5.76 10.519L5.1 11.179L6.84 12.919L6.415 13.344L6.4 13.337C6.3764 13.3758 6.34519 13.4095 6.30824 13.436C6.27129 13.4624 6.22937 13.4812 6.185 13.491L4.562 13.853C4.50701 13.8648 4.44996 13.8626 4.39603 13.8466C4.34211 13.8307 4.29303 13.8015 4.25326 13.7617C4.2135 13.722 4.18432 13.6729 4.16838 13.619C4.15244 13.565 4.15025 13.508 4.162 13.453L4.524 11.831C4.53402 11.7866 4.55292 11.7446 4.57955 11.7077C4.60619 11.6707 4.64001 11.6395 4.679 11.616L4.671 11.6L11.539 4.732C11.563 4.70802 11.5914 4.689 11.6227 4.67602C11.654 4.66305 11.6876 4.65637 11.7215 4.65637C11.7554 4.65637 11.789 4.66305 11.8203 4.67602C11.8516 4.689 11.88 4.70802 11.904 4.732L13.279 6.107C13.3037 6.13104 13.3234 6.15981 13.3368 6.19158C13.3503 6.22336 13.3572 6.2575 13.3572 6.292C13.3572 6.3265 13.3503 6.36064 13.3368 6.39242C13.3234 6.42419 13.3037 6.45296 13.279 6.477H13.278Z" fill="#017785"/>
</svg>
