
<svg width="13" height="16" viewBox="0 0 13 16" fill="none" xmlns="http://www.w3.org/2000/svg">
<path d="M5.92394 16C5.51841 15.9531 5.11722 15.8725 4.72427 15.7591C3.60953 15.4303 2.60005 14.8009 1.79999 13.9357C0.999935 13.0705 0.438259 12.0009 0.172925 10.8373C-0.0924092 9.67368 -0.0517891 8.45813 0.290576 7.31608C0.632942 6.17403 1.26465 5.14682 2.12056 4.34045C3.13496 3.35904 4.43874 2.75581 5.82422 2.62685C6.06279 2.60064 6.30428 2.60871 6.54773 2.59258C6.53111 2.51698 6.48027 2.49178 6.44312 2.44843C6.04029 2.03112 5.63453 1.62087 5.23562 1.19952C5.16984 1.13503 5.11736 1.05751 5.08133 0.971609C5.04529 0.885711 5.02645 0.793199 5.02592 0.699614C5.02538 0.606028 5.04317 0.513301 5.07822 0.426972C5.11327 0.340643 5.16487 0.262485 5.22991 0.197197C5.29494 0.131909 5.37209 0.0808398 5.45673 0.0470184C5.54138 0.0131971 5.63176 -0.00267752 5.72249 0.000368234C5.81322 0.00341399 5.90242 0.0253107 5.98475 0.0647372C6.06708 0.104164 6.14084 0.160309 6.20163 0.22982C6.38935 0.419324 6.57316 0.611861 6.75893 0.802373L8.61663 2.71757C8.70569 2.78412 8.77819 2.87148 8.82818 2.97249C8.87817 3.0735 8.90424 3.18529 8.90424 3.29869C8.90424 3.41209 8.87817 3.52386 8.82818 3.62487C8.77819 3.72588 8.70569 3.81324 8.61663 3.87979C7.80315 4.71845 6.98838 5.55644 6.1723 6.39375C6.09419 6.47977 5.99586 6.54354 5.88683 6.57889C5.77781 6.61424 5.6618 6.61998 5.54999 6.59555C5.43819 6.57112 5.33439 6.51734 5.24866 6.43943C5.16292 6.36152 5.09815 6.26211 5.0606 6.15083C5.01176 6.02369 5.00197 5.88416 5.03257 5.75111C5.06317 5.61805 5.13269 5.4979 5.23171 5.40691L6.47245 4.12675C6.50765 4.09046 6.53991 4.05217 6.59662 3.98967C6.39032 3.98967 6.21141 3.97556 6.03541 3.98967C5.1627 4.07003 4.32418 4.37806 3.59882 4.88476C2.87347 5.39147 2.28513 6.08017 1.88924 6.88602C1.49334 7.69186 1.30291 8.58834 1.33586 9.49101C1.36882 10.3937 1.62409 11.2728 2.07762 12.0457C2.53116 12.8186 3.16804 13.4598 3.9283 13.9088C4.68855 14.3579 5.54716 14.6001 6.42326 14.6126C7.29937 14.625 8.16413 14.4074 8.93613 13.9802C9.70814 13.553 10.362 12.9303 10.8361 12.1706C11.1464 11.8569 11.3804 11.4721 11.519 11.0475C11.6577 10.6229 11.697 10.1705 11.6339 9.72722C11.6787 8.36241 11.2745 7.02208 10.487 5.92402C10.3961 5.82542 10.334 5.70235 10.3078 5.56897C10.2817 5.43558 10.2927 5.29729 10.3394 5.17003C10.3817 5.0583 10.4515 4.95985 10.5419 4.88433C10.6323 4.80882 10.7402 4.75885 10.855 4.73932C10.9698 4.7198 11.0875 4.73139 11.1967 4.77298C11.3058 4.81456 11.4026 4.8847 11.4775 4.9765C12.212 5.87944 12.703 6.96578 12.9013 8.12636C13.0995 9.28694 12.998 10.4809 12.607 11.5882C12.2159 12.6955 11.549 13.6772 10.6733 14.4346C9.79765 15.1921 8.74403 15.6986 7.61835 15.9032C7.44529 15.9365 7.27029 15.9597 7.09723 15.9869L5.92394 16Z" fill="#505050"/>
</svg>
