
<svg width="28" height="28" viewBox="0 0 28 28" fill="none" xmlns="http://www.w3.org/2000/svg">
<path d="M21 0H7C3.13401 0 0 3.13401 0 7V21C0 24.866 3.13401 28 7 28H21C24.866 28 28 24.866 28 21V7C28 3.13401 24.866 0 21 0Z" fill="#FC9C2E"/>
<path d="M8 18.2993V17.7583C8.06107 17.4869 8.16218 17.226 8.3 16.9843C8.731 16.2013 9.155 15.4143 9.582 14.6303L12.655 8.98132C12.8164 8.68069 13.0573 8.43018 13.3514 8.25715C13.6454 8.08413 13.9814 7.99524 14.3226 8.0002C14.6638 8.00515 14.997 8.10376 15.286 8.28525C15.5749 8.46673 15.8084 8.72414 15.961 9.02933C16.913 10.7833 17.8667 12.5367 18.822 14.2893C19.356 15.2723 19.9 16.2513 20.422 17.2423C20.6103 17.6327 20.6556 18.0768 20.55 18.4971C20.4444 18.9175 20.1945 19.2874 19.844 19.5423C19.4766 19.7949 19.0375 19.9222 18.592 19.9053H10.413C10.184 19.9053 9.955 19.9053 9.725 19.8913C9.31227 19.868 8.91993 19.7042 8.613 19.4273C8.28752 19.131 8.07153 18.7336 8 18.2993ZM15.024 13.6133V11.9283C15.0246 11.8339 15.0176 11.7396 15.003 11.6463C14.9801 11.5016 14.9135 11.3674 14.8121 11.2616C14.7108 11.1558 14.5796 11.0835 14.436 11.0543C14.2879 11.0265 14.1348 11.045 13.9977 11.1075C13.8606 11.17 13.7461 11.2733 13.67 11.4033C13.5956 11.5502 13.5611 11.714 13.57 11.8783V15.2843C13.5691 15.3744 13.5754 15.4643 13.589 15.5533C13.6086 15.6875 13.6659 15.8133 13.754 15.9163C13.8422 16.0193 13.9577 16.0952 14.0872 16.1352C14.2167 16.1753 14.3549 16.1779 14.4858 16.1427C14.6168 16.1075 14.735 16.0359 14.827 15.9363C14.8974 15.8583 14.9514 15.767 14.9858 15.6677C15.0201 15.5684 15.0342 15.4632 15.027 15.3583C15.027 14.7763 15.027 14.1933 15.027 13.6123L15.024 13.6133ZM14.306 16.9503C14.2116 16.9483 14.1177 16.9651 14.0298 16.9995C13.9419 17.034 13.8617 17.0856 13.7939 17.1512C13.726 17.2169 13.6718 17.2953 13.6344 17.382C13.597 17.4687 13.5772 17.5619 13.576 17.6563C13.5721 17.7533 13.5877 17.8501 13.6221 17.9409C13.6564 18.0317 13.7087 18.1146 13.7758 18.1848C13.8429 18.2549 13.9234 18.3108 14.0126 18.349C14.1018 18.3873 14.1978 18.4072 14.2949 18.4076C14.392 18.4079 14.4881 18.3887 14.5776 18.351C14.667 18.3133 14.748 18.258 14.8156 18.1884C14.8832 18.1187 14.936 18.0361 14.971 17.9456C15.0059 17.855 15.0223 17.7583 15.019 17.6613C15.0172 17.4733 14.9413 17.2935 14.8078 17.161C14.6744 17.0284 14.4941 16.9538 14.306 16.9533V16.9503Z" fill="white"/>
</svg>
